<svg xmlns="http://www.w3.org/2000/svg" viewBox="0 0 48 48"><defs><style>.cls-1{fill:#db5669}.cls-2{fill:#f26674}.cls-5{fill:#425b72}.cls-6{fill:#374f68}</style></defs><g id="Startup"><path class="cls-1" d="M41 37.27V45l-7.79-5.85a34.8 34.8 0 0 0 2.11-9.45zM14.79 39.15 7 45v-7.73l1-1.33 4.68-6.24a34.65 34.65 0 0 0 1.76 8.46c.11.33.23.66.35.99z"/><path class="cls-2" d="m14.44 38.16-.8.6A3.52 3.52 0 0 1 8 35.94l4.68-6.24a34.65 34.65 0 0 0 1.76 8.46zM33.56 38.16l.8.6A3.52 3.52 0 0 0 40 35.94l-4.68-6.24a34.65 34.65 0 0 1-1.76 8.46z"/><path class="cls-1" d="M32.55 13h-17.1a35 35 0 0 1 8.06-11.53L24 1l.49.47.05.05A35.08 35.08 0 0 1 31.61 11c.39.66.65 1.32.94 2z"/><path class="cls-2" d="M31.61 11h-2.85a5.68 5.68 0 0 1-4.22-9.48A35.08 35.08 0 0 1 31.61 11z"/><path d="M35.32 29.69a34.8 34.8 0 0 1-2.11 9.45c-.11.29-.22.57-.34.85-.26.67-.55 1.34-.87 2H16c-.45-.94-.85-1.89-1.21-2.85a34.8 34.8 0 0 1-2.11-9.45A35.08 35.08 0 0 1 15.45 13h17.1a35.08 35.08 0 0 1 2.77 16.69z" style="fill:#dad7e5"/><path d="M35.32 29.69A34.62 34.62 0 0 1 32.88 40H22a4.43 4.43 0 0 1-4.16-2.82 34.8 34.8 0 0 1-2.11-9.45 35.06 35.06 0 0 1 2-14.69h14.82a35.08 35.08 0 0 1 2.77 16.65z" style="fill:#edebf2"/><path class="cls-5" d="M24 43a1 1 0 0 1-1-1v-4a1 1 0 0 1 2 0v4a1 1 0 0 1-1 1z"/><path class="cls-6" d="M29 26a4.93 4.93 0 0 1-.61 2.39 5 5 0 1 1-6.78-6.78A4.93 4.93 0 0 1 24 21a5 5 0 0 1 5 5z"/><path class="cls-5" d="M29 26a4.93 4.93 0 0 1-.61 2.39A4.93 4.93 0 0 1 26 29a5 5 0 0 1-5-5 4.93 4.93 0 0 1 .61-2.39A4.93 4.93 0 0 1 24 21a5 5 0 0 1 5 5z"/><path class="cls-6" d="m30 42-.9 3-.6 2h-9L18 42h12z"/><path class="cls-5" d="m30 42-.9 3h-3.47a4.2 4.2 0 0 1-4-3H30z"/></g></svg>