<svg width="24" height="24" viewBox="0 0 24 24" fill="none" xmlns="http://www.w3.org/2000/svg">
<path fill-rule="evenodd" clip-rule="evenodd" d="M7.99963 8C7.37195 7.16434 7 6.1256 7 5C7 2.23858 9.23857 0 12 0C14.7614 0 17 2.23858 17 5C17 6.1256 16.6281 7.16434 16.0004 8H21L24 24H0L3 8H7.99963ZM15 5C15 6.65685 13.6569 8 12 8C10.3431 8 9 6.65685 9 5C9 3.34315 10.3431 2 12 2C13.6569 2 15 3.34315 15 5ZM6.12207 18.1182L7.16943 17.0073L9.94971 21H11.854L8.22314 15.8521L11.6572 11.7578H9.71484L7.01074 14.9951L6.12207 16.0933V11.7578H4.51611V21H6.12207V18.1182ZM18.208 20.7905C18.8005 20.5662 19.2638 20.2362 19.5981 19.8003V16.2583H16.0942V17.4771H17.9985V19.2861C17.6515 19.6585 17.0676 19.8447 16.2466 19.8447C15.4976 19.8447 14.9115 19.5697 14.4883 19.0195C14.0693 18.4652 13.8599 17.6886 13.8599 16.6899V15.979C13.8726 14.9761 14.0651 14.2165 14.4375 13.7002C14.8141 13.1797 15.3621 12.9194 16.0815 12.9194C17.1945 12.9194 17.8398 13.4759 18.0176 14.5889H19.5918C19.4691 13.6325 19.1051 12.9004 18.5 12.3926C17.8949 11.8848 17.0781 11.6309 16.0498 11.6309C14.8522 11.6309 13.9191 12.0244 13.2505 12.8115C12.5819 13.5944 12.2476 14.6841 12.2476 16.0806V16.8042C12.2603 17.6759 12.4274 18.4398 12.749 19.0957C13.0749 19.7474 13.5361 20.2489 14.1328 20.6001C14.7295 20.9513 15.415 21.127 16.1895 21.127C16.9427 21.127 17.6156 21.0148 18.208 20.7905Z" fill="white"/>
</svg>
