<svg width="24" height="24" viewBox="0 0 24 24" fill="none" xmlns="http://www.w3.org/2000/svg">
<path fill-rule="evenodd" clip-rule="evenodd" d="M7.99963 8C7.37195 7.16434 7 6.1256 7 5C7 2.23858 9.23857 0 12 0C14.7614 0 17 2.23858 17 5C17 6.1256 16.6281 7.16434 16.0004 8H21L24 24H0L3 8H7.99963ZM15 5C15 6.65685 13.6569 8 12 8C10.3431 8 9 6.65685 9 5C9 3.34315 10.3431 2 12 2C13.6569 2 15 3.34315 15 5ZM11.0566 19.6191H6.53809V11.0469H4.80859V21H11.0566V19.6191ZM12.3828 11.0469V21H16.0127C17.1292 21 17.986 20.7494 18.583 20.248C19.1846 19.7467 19.4854 19.029 19.4854 18.0947C19.4854 17.5296 19.3372 17.0465 19.041 16.6455C18.7493 16.2399 18.3346 15.9642 17.7969 15.8184C18.2708 15.6178 18.6309 15.3353 18.877 14.9707C19.123 14.6061 19.2461 14.196 19.2461 13.7402C19.2461 12.847 18.9521 12.1748 18.3643 11.7236C17.7764 11.2725 16.9196 11.0469 15.7939 11.0469H12.3828ZM14.1123 19.6191V16.5088H16.1768C17.2341 16.5316 17.7627 17.0602 17.7627 18.0947C17.7627 18.5732 17.61 18.9469 17.3047 19.2158C16.9993 19.4847 16.5755 19.6191 16.0332 19.6191H14.1123ZM15.8076 15.2373H14.1123V12.4414H15.7939C16.3864 12.4414 16.8216 12.5508 17.0996 12.7695C17.3822 12.9883 17.5234 13.3438 17.5234 13.8359C17.5234 14.2826 17.3708 14.6289 17.0654 14.875C16.7646 15.1165 16.3454 15.2373 15.8076 15.2373Z" fill="white"/>
</svg>
